<svg xmlns="http://www.w3.org/2000/svg" width="40" height="39" fill="none" viewBox="0 0 40 39"><path fill="#7D7DA6" d="M6.09497 5.62509C6.09497 5.62509 6.67444 2.38196 9.17725 2.38196H12.278V1.5269C12.278 1.12194 12.4404 0.733566 12.7294 0.447218C13.0184 0.160869 13.4104 0 13.8192 0H26.0989C26.5077 0 26.8997 0.160869 27.1887 0.447218C27.4777 0.733566 27.6401 1.12194 27.6401 1.5269V2.38196H30.7532C31.127 2.38009 31.4967 2.45921 31.8363 2.61377C32.176 2.76833 32.4775 2.9946 32.7197 3.27672C33.2798 3.95738 33.6629 4.7637 33.8354 5.62509C33.8354 5.62509 34.794 10.4257 35.6602 14.5361H32.769L30.7593 5.41438L9.12793 5.40216L7.13062 14.533H4.19629L6.09497 5.62509ZM40 20.6314C40 21.4408 39.6757 22.2171 39.0983 22.7897C38.5209 23.3623 37.7377 23.6844 36.9208 23.6852L33.8385 35.8179C33.8385 35.8179 33.2591 39 30.7563 39H9.18033C6.67444 39 6.09806 35.8179 6.09806 35.8179L2.9603 23.6761C2.16056 23.6454 1.40428 23.3075 0.851704 22.7339C0.29913 22.1603 -0.00631314 21.3961 9.89503e-05 20.6032C0.00651104 19.8102 0.324274 19.051 0.886054 18.4862C1.44783 17.9214 2.20949 17.5956 3.00962 17.5776H36.9146C37.7321 17.5776 38.5161 17.8994 39.0941 18.4721C39.6722 19.0448 39.9969 19.8215 39.9969 20.6314H40ZM12.3674 33.2955L12.3582 29.86L11.1561 25.1694C11.1269 24.9556 11.0556 24.7496 10.9461 24.5632C10.8366 24.3768 10.6911 24.2136 10.518 24.0828C10.3448 23.9521 10.1474 23.8564 9.93688 23.8013C9.72641 23.7462 9.50704 23.7327 9.29129 23.7616C9.07555 23.7904 8.86766 23.8611 8.67949 23.9696C8.49133 24.0781 8.32657 24.2222 8.19462 24.3938C8.06268 24.5653 7.96613 24.761 7.91049 24.9695C7.85486 25.178 7.84122 25.3954 7.87036 25.6091L8.50531 29.8692L9.0817 33.7383C9.14097 34.17 9.37089 34.5607 9.72089 34.8244C10.0709 35.0881 10.5123 35.2033 10.948 35.1446C11.3837 35.0859 11.7781 34.8581 12.0442 34.5113C12.3104 34.1645 12.4267 33.7272 12.3674 33.2955ZM18.532 25.3648C18.532 25.1508 18.4894 24.9389 18.4066 24.7412C18.3239 24.5435 18.2026 24.364 18.0497 24.2128C17.8968 24.0616 17.7153 23.9418 17.5157 23.8602C17.316 23.7785 17.102 23.7367 16.886 23.7371H16.8552C16.6497 23.7368 16.4463 23.7771 16.2568 23.8558C16.0673 23.9344 15.8956 24.0498 15.7517 24.1952C15.591 24.3462 15.463 24.528 15.3756 24.7297C15.2882 24.9313 15.2431 25.1484 15.2432 25.3679V33.552C15.2432 33.9841 15.4164 34.3985 15.7248 34.704C16.0332 35.0096 16.4514 35.1812 16.8876 35.1812C17.3237 35.1812 17.7419 35.0096 18.0503 34.704C18.3587 34.3985 18.532 33.9841 18.532 33.552V25.3648ZM24.6903 25.3648C24.6895 25.0396 24.5901 24.7221 24.4048 24.4537C24.2196 24.1852 23.9572 23.9781 23.6516 23.8593C23.4602 23.7782 23.2541 23.7364 23.0459 23.7364C22.8378 23.7364 22.6317 23.7782 22.4403 23.8593C22.1347 23.9781 21.8723 24.1852 21.6871 24.4537C21.5018 24.7221 21.4024 25.0396 21.4016 25.3648V33.549C21.4016 33.9811 21.5748 34.3955 21.8832 34.701C22.1916 35.0065 22.6098 35.1782 23.0459 35.1782C23.4821 35.1782 23.9003 35.0065 24.2087 34.701C24.5171 34.3955 24.6903 33.9811 24.6903 33.549V25.3648ZM32.0416 25.6091C32.0707 25.3956 32.0571 25.1784 32.0016 24.9701C31.946 24.7617 31.8496 24.5663 31.7178 24.3949C31.586 24.2234 31.4214 24.0794 31.2334 23.971C31.0454 23.8626 30.8377 23.792 30.6222 23.7631C30.4066 23.7342 30.1875 23.7477 29.9772 23.8027C29.7669 23.8578 29.5696 23.9533 29.3966 24.0839C29.2236 24.2145 29.0782 24.3776 28.9688 24.5638C28.8594 24.75 28.7881 24.9558 28.7589 25.1694L27.5538 29.8264L27.5476 33.2955C27.5183 33.5091 27.5317 33.7262 27.587 33.9347C27.6424 34.1431 27.7387 34.3387 27.8703 34.5102C28.002 34.6818 28.1665 34.826 28.3544 34.9345C28.5423 35.0431 28.7499 35.114 28.9655 35.1431C29.181 35.1721 29.4002 35.1589 29.6106 35.104C29.8209 35.0491 30.0183 34.9538 30.1915 34.8233C30.3646 34.6929 30.5102 34.5299 30.6198 34.3438C30.7294 34.1576 30.8009 33.9519 30.8302 33.7383L32.0416 25.6091Z"/></svg>